<svg xmlns="http://www.w3.org/2000/svg" viewBox="0 0 800 500" width="800" height="500" role="img" aria-label="Barqhire dashboard preview"><defs><linearGradient id="g1" x1="0" y1="0" x2="1" y2="1"><stop offset="0" stop-color="#0F172A"/><stop offset="1" stop-color="#1E293B"/></linearGradient></defs><rect width="800" height="500" fill="url(#g1)"/><rect x="40" y="40" width="180" height="14" rx="7" fill="#B8860B"/><rect x="40" y="68" width="320" height="10" rx="5" fill="#475569"/><g fill="#1E293B" stroke="#334155"><rect x="40" y="120" width="220" height="120" rx="12"/><rect x="290" y="120" width="220" height="120" rx="12"/><rect x="540" y="120" width="220" height="120" rx="12"/></g><g fill="#B8860B" opacity=".85"><circle cx="80" cy="160" r="12"/><circle cx="330" cy="160" r="12"/><circle cx="580" cy="160" r="12"/></g><g fill="#475569"><rect x="110" y="152" width="120" height="8" rx="4"/><rect x="110" y="170" width="80" height="6" rx="3"/><rect x="360" y="152" width="120" height="8" rx="4"/><rect x="360" y="170" width="80" height="6" rx="3"/><rect x="610" y="152" width="120" height="8" rx="4"/><rect x="610" y="170" width="80" height="6" rx="3"/></g><rect x="40" y="280" width="720" height="180" rx="12" fill="#1E293B" stroke="#334155"/><polyline points="60,420 160,360 260,380 360,300 460,330 560,260 660,290 740,230" fill="none" stroke="#D4A017" stroke-width="3"/></svg>
