<svg xmlns="http://www.w3.org/2000/svg" viewBox="0 0 800 500" width="800" height="500" role="img" aria-label="EventFlow Dashboard preview"><defs><linearGradient id="g2" x1="0" y1="0" x2="1" y2="1"><stop offset="0" stop-color="#0F172A"/><stop offset="1" stop-color="#1E293B"/></linearGradient></defs><rect width="800" height="500" fill="url(#g2)"/><rect x="40" y="40" width="160" height="14" rx="7" fill="#B8860B"/><rect x="40" y="68" width="280" height="10" rx="5" fill="#475569"/><g><rect x="40" y="110" width="170" height="350" rx="14" fill="#1E293B" stroke="#334155"/><rect x="60" y="140" width="110" height="8" rx="4" fill="#B8860B"/><rect x="60" y="170" width="130" height="6" rx="3" fill="#475569"/><rect x="60" y="190" width="100" height="6" rx="3" fill="#475569"/><rect x="60" y="210" width="120" height="6" rx="3" fill="#475569"/></g><rect x="230" y="110" width="530" height="160" rx="14" fill="#1E293B" stroke="#334155"/><g fill="#B8860B"><rect x="250" y="140" width="100" height="80" rx="8" opacity=".85"/><rect x="370" y="160" width="100" height="60" rx="8" opacity=".7"/><rect x="490" y="180" width="100" height="40" rx="8" opacity=".55"/><rect x="610" y="170" width="100" height="50" rx="8" opacity=".4"/></g><rect x="230" y="290" width="260" height="170" rx="14" fill="#1E293B" stroke="#334155"/><rect x="510" y="290" width="250" height="170" rx="14" fill="#1E293B" stroke="#334155"/><polyline points="250,420 290,400 330,360 370,380 410,340 450,360 480,330" fill="none" stroke="#D4A017" stroke-width="3"/></svg>
