<svg xmlns="http://www.w3.org/2000/svg" viewBox="0 0 800 500" width="800" height="500" role="img" aria-label="TrackMate mobile preview"><defs><linearGradient id="g3" x1="0" y1="0" x2="1" y2="1"><stop offset="0" stop-color="#0F172A"/><stop offset="1" stop-color="#1E293B"/></linearGradient></defs><rect width="800" height="500" fill="url(#g3)"/><g transform="translate(290 50)"><rect width="220" height="400" rx="34" fill="#0B1220" stroke="#334155" stroke-width="2"/><rect x="14" y="20" width="192" height="360" rx="24" fill="#1E293B"/><rect x="40" y="48" width="100" height="10" rx="5" fill="#B8860B"/><rect x="40" y="68" width="140" height="6" rx="3" fill="#475569"/><g fill="#0F172A"><rect x="32" y="100" width="156" height="56" rx="10" stroke="#334155"/><rect x="32" y="166" width="156" height="56" rx="10" stroke="#334155"/><rect x="32" y="232" width="156" height="56" rx="10" stroke="#334155"/></g><g fill="#B8860B"><circle cx="56" cy="128" r="10"/><circle cx="56" cy="194" r="10"/><circle cx="56" cy="260" r="10"/></g><g fill="#475569"><rect x="74" y="122" width="80" height="6" rx="3"/><rect x="74" y="134" width="60" height="5" rx="3"/><rect x="74" y="188" width="80" height="6" rx="3"/><rect x="74" y="200" width="60" height="5" rx="3"/><rect x="74" y="254" width="80" height="6" rx="3"/><rect x="74" y="266" width="60" height="5" rx="3"/></g><rect x="32" y="318" width="156" height="36" rx="18" fill="#B8860B"/></g></svg>
